<mxfile host="app.diagrams.net" modified="2020-09-17T02:50:52.687Z" agent="5.0 (Windows NT 10.0; Win64; x64) AppleWebKit/537.36 (KHTML, like Gecko) Chrome/85.0.4183.83 Safari/537.36" etag="UlyrvZCHmLgdec49BUmw" version="13.7.2" type="github">
  <diagram id="dy_8Izg7FnlNef2klucm" name="第 1 页">
    <mxGraphModel dx="2587" dy="883" grid="0" gridSize="10" guides="0" tooltips="1" connect="1" arrows="1" fold="1" page="1" pageScale="1" pageWidth="400" pageHeight="500" math="1" shadow="1">
      <root>
        <mxCell id="0" />
        <mxCell id="1" parent="0" />
        <mxCell id="IFFRn_ugBCJUuxa1NSOB-2" value="web攻防" style="rounded=1;whiteSpace=wrap;html=1;fillColor=#FF639C;arcSize=50;" vertex="1" parent="1">
          <mxGeometry x="208" y="405" width="113" height="60" as="geometry" />
        </mxCell>
        <mxCell id="IFFRn_ugBCJUuxa1NSOB-37" style="edgeStyle=orthogonalEdgeStyle;curved=1;rounded=0;orthogonalLoop=1;jettySize=auto;html=1;exitX=1;exitY=0.5;exitDx=0;exitDy=0;entryX=0.646;entryY=1.01;entryDx=0;entryDy=0;entryPerimeter=0;startArrow=none;startFill=0;endArrow=oval;endFill=1;strokeColor=#59FF7A;" edge="1" parent="1" source="IFFRn_ugBCJUuxa1NSOB-3" target="IFFRn_ugBCJUuxa1NSOB-19">
          <mxGeometry relative="1" as="geometry" />
        </mxCell>
        <mxCell id="IFFRn_ugBCJUuxa1NSOB-3" value="K" style="rhombus;whiteSpace=wrap;html=1;fillColor=#59FF7A;align=center;labelPosition=center;verticalLabelPosition=top;verticalAlign=bottom;" vertex="1" parent="1">
          <mxGeometry x="395" y="302" width="80" height="80" as="geometry" />
        </mxCell>
        <mxCell id="IFFRn_ugBCJUuxa1NSOB-40" style="edgeStyle=orthogonalEdgeStyle;curved=1;rounded=0;orthogonalLoop=1;jettySize=auto;html=1;entryX=0.5;entryY=0;entryDx=0;entryDy=0;startArrow=none;startFill=0;endArrow=oval;endFill=1;strokeColor=#59FF7A;" edge="1" parent="1" target="IFFRn_ugBCJUuxa1NSOB-39">
          <mxGeometry relative="1" as="geometry">
            <mxPoint x="475" y="464" as="sourcePoint" />
          </mxGeometry>
        </mxCell>
        <mxCell id="IFFRn_ugBCJUuxa1NSOB-41" style="edgeStyle=orthogonalEdgeStyle;curved=1;rounded=0;orthogonalLoop=1;jettySize=auto;html=1;entryX=-0.041;entryY=0.422;entryDx=0;entryDy=0;entryPerimeter=0;startArrow=none;startFill=0;endArrow=oval;endFill=1;strokeColor=#59FF7A;" edge="1" parent="1" source="IFFRn_ugBCJUuxa1NSOB-4" target="IFFRn_ugBCJUuxa1NSOB-38">
          <mxGeometry relative="1" as="geometry" />
        </mxCell>
        <mxCell id="IFFRn_ugBCJUuxa1NSOB-4" value="L" style="rhombus;whiteSpace=wrap;html=1;fillColor=#59FF7A;align=center;labelPosition=center;verticalLabelPosition=top;verticalAlign=bottom;" vertex="1" parent="1">
          <mxGeometry x="395" y="424" width="80" height="80" as="geometry" />
        </mxCell>
        <mxCell id="IFFRn_ugBCJUuxa1NSOB-5" value="" style="edgeStyle=orthogonalEdgeStyle;curved=1;rounded=0;orthogonalLoop=1;jettySize=auto;html=1;startArrow=circle;startFill=1;startSize=0;endArrow=none;endFill=0;endSize=0;targetPerimeterSpacing=3;strokeColor=#DF3DFF;strokeWidth=3;dashed=1;dashPattern=1 1;entryX=0.5;entryY=1;entryDx=0;entryDy=0;exitX=0;exitY=0.5;exitDx=0;exitDy=0;" edge="1" source="IFFRn_ugBCJUuxa1NSOB-8" target="IFFRn_ugBCJUuxa1NSOB-12" parent="1">
          <mxGeometry relative="1" as="geometry">
            <Array as="points">
              <mxPoint x="74" y="450" />
              <mxPoint x="74" y="382" />
              <mxPoint x="121" y="382" />
            </Array>
          </mxGeometry>
        </mxCell>
        <mxCell id="IFFRn_ugBCJUuxa1NSOB-6" value="" style="edgeStyle=orthogonalEdgeStyle;curved=1;rounded=0;orthogonalLoop=1;jettySize=auto;html=1;dashed=1;dashPattern=1 1;startArrow=circle;startFill=1;startSize=0;endArrow=circle;endFill=1;endSize=0;targetPerimeterSpacing=3;strokeColor=#DF3DFF;strokeWidth=3;entryX=0.5;entryY=1;entryDx=0;entryDy=0;" edge="1" source="IFFRn_ugBCJUuxa1NSOB-8" target="IFFRn_ugBCJUuxa1NSOB-4" parent="1">
          <mxGeometry relative="1" as="geometry">
            <mxPoint x="121" y="570" as="targetPoint" />
            <Array as="points">
              <mxPoint x="209" y="450" />
              <mxPoint x="209" y="504" />
            </Array>
          </mxGeometry>
        </mxCell>
        <mxCell id="IFFRn_ugBCJUuxa1NSOB-7" value="" style="edgeStyle=orthogonalEdgeStyle;curved=1;rounded=0;orthogonalLoop=1;jettySize=auto;html=1;dashed=1;dashPattern=1 1;startArrow=circle;startFill=1;startSize=0;endArrow=circle;endFill=1;endSize=0;targetPerimeterSpacing=3;strokeColor=#DF3DFF;strokeWidth=3;" edge="1" source="IFFRn_ugBCJUuxa1NSOB-8" parent="1">
          <mxGeometry relative="1" as="geometry">
            <mxPoint x="442" y="379" as="targetPoint" />
            <Array as="points">
              <mxPoint x="121" y="526" />
              <mxPoint x="350" y="526" />
              <mxPoint x="350" y="379" />
            </Array>
          </mxGeometry>
        </mxCell>
        <mxCell id="IFFRn_ugBCJUuxa1NSOB-164" style="edgeStyle=orthogonalEdgeStyle;curved=1;rounded=0;orthogonalLoop=1;jettySize=auto;html=1;exitX=0;exitY=1;exitDx=0;exitDy=0;entryX=1;entryY=0;entryDx=0;entryDy=0;startArrow=none;startFill=0;startSize=6;sourcePerimeterSpacing=0;endArrow=oval;endFill=1;endSize=6;targetPerimeterSpacing=0;fontSize=3;fontColor=#000000;strokeColor=#59FF7A;" edge="1" parent="1" source="IFFRn_ugBCJUuxa1NSOB-8" target="IFFRn_ugBCJUuxa1NSOB-163">
          <mxGeometry relative="1" as="geometry" />
        </mxCell>
        <mxCell id="IFFRn_ugBCJUuxa1NSOB-8" value="P" style="rhombus;whiteSpace=wrap;html=1;fillColor=#59FF7A;align=center;labelPosition=center;verticalLabelPosition=top;verticalAlign=bottom;" vertex="1" parent="1">
          <mxGeometry x="81" y="410" width="80" height="80" as="geometry" />
        </mxCell>
        <mxCell id="IFFRn_ugBCJUuxa1NSOB-45" style="edgeStyle=orthogonalEdgeStyle;curved=1;rounded=0;orthogonalLoop=1;jettySize=auto;html=1;startArrow=none;startFill=0;endArrow=oval;endFill=1;strokeColor=#59FF7A;" edge="1" parent="1" source="IFFRn_ugBCJUuxa1NSOB-12" target="IFFRn_ugBCJUuxa1NSOB-42">
          <mxGeometry relative="1" as="geometry">
            <mxPoint x="44" y="330" as="targetPoint" />
            <Array as="points">
              <mxPoint x="53" y="320" />
              <mxPoint x="53" y="340" />
            </Array>
          </mxGeometry>
        </mxCell>
        <mxCell id="IFFRn_ugBCJUuxa1NSOB-12" value="W" style="rhombus;whiteSpace=wrap;html=1;fillColor=#59FF7A;align=center;labelPosition=center;verticalLabelPosition=top;verticalAlign=bottom;" vertex="1" parent="1">
          <mxGeometry x="81" y="290" width="80" height="80" as="geometry" />
        </mxCell>
        <mxCell id="IFFRn_ugBCJUuxa1NSOB-13" value="" style="edgeStyle=orthogonalEdgeStyle;curved=1;rounded=0;orthogonalLoop=1;jettySize=auto;html=1;startArrow=oval;startFill=1;endArrow=none;endFill=0;strokeWidth=3;fillColor=#ffe6cc;strokeColor=#DF3DFF;endSize=0;targetPerimeterSpacing=3;entryX=0.064;entryY=0.201;entryDx=0;entryDy=0;entryPerimeter=0;" edge="1" source="IFFRn_ugBCJUuxa1NSOB-12" target="IFFRn_ugBCJUuxa1NSOB-2" parent="1">
          <mxGeometry relative="1" as="geometry">
            <mxPoint x="682" y="459" as="targetPoint" />
            <Array as="points">
              <mxPoint x="180" y="330" />
              <mxPoint x="180" y="405" />
              <mxPoint x="215" y="405" />
            </Array>
          </mxGeometry>
        </mxCell>
        <mxCell id="IFFRn_ugBCJUuxa1NSOB-14" value="&lt;span&gt;已知&lt;br&gt;&lt;/span&gt;" style="text;html=1;align=center;verticalAlign=middle;resizable=0;points=[];autosize=1;" vertex="1" parent="1">
          <mxGeometry x="418" y="333" width="34" height="18" as="geometry" />
        </mxCell>
        <mxCell id="IFFRn_ugBCJUuxa1NSOB-15" value="&lt;span&gt;所学&lt;/span&gt;" style="text;html=1;align=center;verticalAlign=middle;resizable=0;points=[];autosize=1;" vertex="1" parent="1">
          <mxGeometry x="418" y="455" width="34" height="18" as="geometry" />
        </mxCell>
        <mxCell id="IFFRn_ugBCJUuxa1NSOB-16" value="&lt;span&gt;想知&lt;/span&gt;" style="text;html=1;align=center;verticalAlign=middle;resizable=0;points=[];autosize=1;" vertex="1" parent="1">
          <mxGeometry x="104" y="321" width="34" height="18" as="geometry" />
        </mxCell>
        <mxCell id="IFFRn_ugBCJUuxa1NSOB-17" value="修复" style="text;html=1;align=center;verticalAlign=middle;resizable=0;points=[];autosize=1;" vertex="1" parent="1">
          <mxGeometry x="104" y="441" width="34" height="18" as="geometry" />
        </mxCell>
        <mxCell id="IFFRn_ugBCJUuxa1NSOB-10" value="" style="edgeStyle=orthogonalEdgeStyle;curved=1;rounded=0;orthogonalLoop=1;jettySize=auto;html=1;startArrow=none;startFill=0;endArrow=circle;endFill=1;strokeWidth=3;fillColor=#ffe6cc;strokeColor=#DF3DFF;endSize=0;targetPerimeterSpacing=3;" edge="1" parent="1" source="IFFRn_ugBCJUuxa1NSOB-2" target="IFFRn_ugBCJUuxa1NSOB-4">
          <mxGeometry relative="1" as="geometry" />
        </mxCell>
        <mxCell id="IFFRn_ugBCJUuxa1NSOB-11" style="edgeStyle=orthogonalEdgeStyle;curved=1;rounded=0;orthogonalLoop=1;jettySize=auto;html=1;startArrow=none;startFill=0;endArrow=circle;endFill=1;strokeWidth=3;fillColor=#ffe6cc;strokeColor=#DF3DFF;endSize=0;targetPerimeterSpacing=3;startSize=0;exitX=0.944;exitY=0.193;exitDx=0;exitDy=0;exitPerimeter=0;" edge="1" parent="1" source="IFFRn_ugBCJUuxa1NSOB-2" target="IFFRn_ugBCJUuxa1NSOB-3">
          <mxGeometry relative="1" as="geometry">
            <Array as="points">
              <mxPoint x="315" y="405" />
              <mxPoint x="361" y="405" />
              <mxPoint x="361" y="353" />
            </Array>
          </mxGeometry>
        </mxCell>
        <mxCell id="IFFRn_ugBCJUuxa1NSOB-19" value="&lt;ul&gt;&lt;li&gt;永远不要相信客户的输入&lt;/li&gt;&lt;li&gt;前端没有绝对的安全&lt;/li&gt;&lt;li&gt;不能加密,只能混淆&lt;/li&gt;&lt;li&gt;重要机密可以用wasm&lt;/li&gt;&lt;li&gt;sql注入&lt;/li&gt;&lt;/ul&gt;" style="rounded=1;whiteSpace=wrap;html=1;fillColor=#FFD966;arcSize=25;align=left;" vertex="1" parent="1">
          <mxGeometry x="452" y="202" width="180" height="100" as="geometry" />
        </mxCell>
        <mxCell id="IFFRn_ugBCJUuxa1NSOB-105" style="edgeStyle=orthogonalEdgeStyle;curved=1;rounded=0;orthogonalLoop=1;jettySize=auto;html=1;exitX=1;exitY=0.5;exitDx=0;exitDy=0;entryX=0.25;entryY=0;entryDx=0;entryDy=0;startArrow=none;startFill=0;startSize=6;sourcePerimeterSpacing=0;endArrow=oval;endFill=1;endSize=6;targetPerimeterSpacing=0;fontSize=3;strokeColor=#FFD966;" edge="1" parent="1" source="IFFRn_ugBCJUuxa1NSOB-38" target="IFFRn_ugBCJUuxa1NSOB-90">
          <mxGeometry relative="1" as="geometry" />
        </mxCell>
        <mxCell id="IFFRn_ugBCJUuxa1NSOB-159" style="edgeStyle=orthogonalEdgeStyle;curved=1;rounded=0;orthogonalLoop=1;jettySize=auto;html=1;exitX=1;exitY=0.75;exitDx=0;exitDy=0;entryX=0.082;entryY=0.262;entryDx=0;entryDy=0;startArrow=none;startFill=0;startSize=6;sourcePerimeterSpacing=0;endArrow=oval;endFill=1;endSize=6;targetPerimeterSpacing=0;fontSize=3;fontColor=#000000;strokeColor=#904FFF;entryPerimeter=0;" edge="1" parent="1" source="IFFRn_ugBCJUuxa1NSOB-38" target="IFFRn_ugBCJUuxa1NSOB-158">
          <mxGeometry relative="1" as="geometry">
            <Array as="points">
              <mxPoint x="745" y="503" />
              <mxPoint x="745" y="664" />
            </Array>
          </mxGeometry>
        </mxCell>
        <mxCell id="IFFRn_ugBCJUuxa1NSOB-38" value="&lt;div&gt;&lt;span&gt;攻击&lt;/span&gt;&lt;/div&gt;" style="rounded=1;whiteSpace=wrap;html=1;arcSize=50;align=center;fillColor=#904FFF;fontColor=#FFFFFF;strokeColor=#FFFFFF;" vertex="1" parent="1">
          <mxGeometry x="514" y="473" width="40" height="40" as="geometry" />
        </mxCell>
        <mxCell id="IFFRn_ugBCJUuxa1NSOB-121" style="edgeStyle=orthogonalEdgeStyle;curved=1;rounded=0;orthogonalLoop=1;jettySize=auto;html=1;entryX=-0.031;entryY=0.588;entryDx=0;entryDy=0;entryPerimeter=0;startArrow=none;startFill=0;startSize=6;sourcePerimeterSpacing=0;endArrow=oval;endFill=1;endSize=6;targetPerimeterSpacing=0;fontSize=3;fontColor=#FFFFFF;strokeColor=#FFD966;exitX=0.67;exitY=0.98;exitDx=0;exitDy=0;exitPerimeter=0;" edge="1" parent="1" source="IFFRn_ugBCJUuxa1NSOB-39" target="IFFRn_ugBCJUuxa1NSOB-120">
          <mxGeometry relative="1" as="geometry">
            <Array as="points">
              <mxPoint x="462" y="550" />
              <mxPoint x="473" y="550" />
            </Array>
          </mxGeometry>
        </mxCell>
        <mxCell id="IFFRn_ugBCJUuxa1NSOB-139" style="edgeStyle=orthogonalEdgeStyle;curved=1;rounded=0;orthogonalLoop=1;jettySize=auto;html=1;exitX=0.045;exitY=0.742;exitDx=0;exitDy=0;entryX=0.397;entryY=0.018;entryDx=0;entryDy=0;entryPerimeter=0;startArrow=none;startFill=0;startSize=6;sourcePerimeterSpacing=0;endArrow=oval;endFill=1;endSize=6;targetPerimeterSpacing=0;fontSize=3;exitPerimeter=0;fontColor=#FFFFFF;strokeColor=#FFD966;" edge="1" parent="1" source="IFFRn_ugBCJUuxa1NSOB-39" target="IFFRn_ugBCJUuxa1NSOB-138">
          <mxGeometry relative="1" as="geometry" />
        </mxCell>
        <mxCell id="IFFRn_ugBCJUuxa1NSOB-141" style="edgeStyle=orthogonalEdgeStyle;curved=1;rounded=0;orthogonalLoop=1;jettySize=auto;html=1;exitX=0.5;exitY=1;exitDx=0;exitDy=0;entryX=0.635;entryY=0.02;entryDx=0;entryDy=0;entryPerimeter=0;startArrow=none;startFill=0;startSize=6;sourcePerimeterSpacing=0;endArrow=oval;endFill=1;endSize=6;targetPerimeterSpacing=0;fontSize=3;fontColor=#FFFFFF;strokeColor=#FFD966;" edge="1" parent="1" source="IFFRn_ugBCJUuxa1NSOB-39" target="IFFRn_ugBCJUuxa1NSOB-140">
          <mxGeometry relative="1" as="geometry" />
        </mxCell>
        <mxCell id="IFFRn_ugBCJUuxa1NSOB-39" value="&lt;div&gt;&lt;span&gt;防御&lt;/span&gt;&lt;/div&gt;" style="rounded=1;whiteSpace=wrap;html=1;fillColor=#FFD966;arcSize=50;align=center;" vertex="1" parent="1">
          <mxGeometry x="435" y="504" width="40" height="40" as="geometry" />
        </mxCell>
        <mxCell id="IFFRn_ugBCJUuxa1NSOB-44" value="" style="group" vertex="1" connectable="0" parent="1">
          <mxGeometry x="-156" y="261" width="180" height="144" as="geometry" />
        </mxCell>
        <mxCell id="IFFRn_ugBCJUuxa1NSOB-42" value="&lt;div&gt;&lt;br&gt;&lt;/div&gt;" style="rounded=1;whiteSpace=wrap;html=1;fillColor=#FFD966;arcSize=0;align=left;labelPosition=center;verticalLabelPosition=middle;verticalAlign=middle;" vertex="1" parent="IFFRn_ugBCJUuxa1NSOB-44">
          <mxGeometry x="10" width="170" height="144" as="geometry" />
        </mxCell>
        <mxCell id="IFFRn_ugBCJUuxa1NSOB-43" value="&lt;ol&gt;&lt;li&gt;&lt;span&gt;高防ip是什么&lt;/span&gt;&lt;br&gt;&lt;/li&gt;&lt;li&gt;第一次网络攻击&lt;/li&gt;&lt;li&gt;社会工程算网络攻击吗&lt;/li&gt;&lt;li&gt;人肉攻击&lt;/li&gt;&lt;li&gt;如果被攻击.要如何追踪&lt;/li&gt;&lt;li&gt;...&lt;/li&gt;&lt;/ol&gt;" style="text;html=1;align=left;verticalAlign=middle;resizable=0;points=[];autosize=1;" vertex="1" parent="IFFRn_ugBCJUuxa1NSOB-44">
          <mxGeometry y="17" width="180" height="110" as="geometry" />
        </mxCell>
        <mxCell id="IFFRn_ugBCJUuxa1NSOB-47" style="edgeStyle=orthogonalEdgeStyle;curved=1;rounded=0;orthogonalLoop=1;jettySize=auto;html=1;exitX=1;exitY=0.5;exitDx=0;exitDy=0;startArrow=none;startFill=0;endArrow=oval;endFill=1;endSize=6;targetPerimeterSpacing=0;sourcePerimeterSpacing=0;startSize=6;entryX=0;entryY=0.595;entryDx=0;entryDy=0;entryPerimeter=0;strokeColor=#FFD966;" edge="1" parent="1" source="IFFRn_ugBCJUuxa1NSOB-38" target="IFFRn_ugBCJUuxa1NSOB-46">
          <mxGeometry relative="1" as="geometry">
            <mxPoint x="137" y="222" as="targetPoint" />
          </mxGeometry>
        </mxCell>
        <mxCell id="IFFRn_ugBCJUuxa1NSOB-89" value="" style="group" vertex="1" connectable="0" parent="1">
          <mxGeometry x="400" y="650" width="380" height="311" as="geometry" />
        </mxCell>
        <mxCell id="IFFRn_ugBCJUuxa1NSOB-100" value="" style="edgeStyle=orthogonalEdgeStyle;curved=1;rounded=0;orthogonalLoop=1;jettySize=auto;html=1;startArrow=none;startFill=0;startSize=6;sourcePerimeterSpacing=0;endArrow=oval;endFill=1;endSize=6;targetPerimeterSpacing=0;strokeColor=#000000;fontSize=3;entryX=0.785;entryY=0;entryDx=0;entryDy=0;entryPerimeter=0;" edge="1" parent="IFFRn_ugBCJUuxa1NSOB-89" target="IFFRn_ugBCJUuxa1NSOB-98">
          <mxGeometry relative="1" as="geometry">
            <mxPoint x="101.48275862068976" y="98" as="sourcePoint" />
            <Array as="points">
              <mxPoint x="102" y="101" />
            </Array>
          </mxGeometry>
        </mxCell>
        <mxCell id="IFFRn_ugBCJUuxa1NSOB-91" value="&lt;font style=&quot;font-size: 11px&quot;&gt;CSRF(Cross Site Request Forgery)，即跨站请求伪造，是一种常见的Web攻击，它利用用户已登 录的身份，在用户毫不知情的情况下，以用户的名义完成非法操作。&lt;/font&gt;" style="whiteSpace=wrap;html=1;rounded=1;arcSize=24;align=center;fontSize=3;fillColor=#000000;fontColor=#FFFFFF;" vertex="1" parent="1">
          <mxGeometry x="645" y="410" width="237" height="80" as="geometry" />
        </mxCell>
        <mxCell id="IFFRn_ugBCJUuxa1NSOB-92" value="" style="edgeStyle=orthogonalEdgeStyle;curved=1;rounded=0;orthogonalLoop=1;jettySize=auto;html=1;startArrow=none;startFill=0;startSize=6;sourcePerimeterSpacing=0;endArrow=oval;endFill=1;endSize=6;targetPerimeterSpacing=0;exitX=0.75;exitY=0;exitDx=0;exitDy=0;entryX=-0.009;entryY=0.912;entryDx=0;entryDy=0;entryPerimeter=0;" edge="1" parent="1" source="IFFRn_ugBCJUuxa1NSOB-90" target="IFFRn_ugBCJUuxa1NSOB-91">
          <mxGeometry relative="1" as="geometry">
            <mxPoint x="640.002" y="561.871" as="sourcePoint" />
          </mxGeometry>
        </mxCell>
        <mxCell id="IFFRn_ugBCJUuxa1NSOB-104" style="edgeStyle=orthogonalEdgeStyle;curved=1;rounded=0;orthogonalLoop=1;jettySize=auto;html=1;startArrow=none;startFill=0;startSize=6;sourcePerimeterSpacing=0;endArrow=oval;endFill=1;endSize=6;targetPerimeterSpacing=0;strokeColor=#000000;fontSize=3;exitX=1;exitY=0.75;exitDx=0;exitDy=0;entryX=0.011;entryY=0.088;entryDx=0;entryDy=0;entryPerimeter=0;" edge="1" parent="1" source="IFFRn_ugBCJUuxa1NSOB-90" target="IFFRn_ugBCJUuxa1NSOB-102">
          <mxGeometry relative="1" as="geometry">
            <mxPoint x="634" y="800" as="targetPoint" />
            <mxPoint x="624.4469999999999" y="569.674" as="sourcePoint" />
          </mxGeometry>
        </mxCell>
        <mxCell id="IFFRn_ugBCJUuxa1NSOB-90" value="CSRF" style="rounded=1;whiteSpace=wrap;html=1;align=center;arcSize=50;fillColor=#000000;fontColor=#FFFFFF;" vertex="1" parent="1">
          <mxGeometry x="594" y="520" width="51" height="51" as="geometry" />
        </mxCell>
        <mxCell id="IFFRn_ugBCJUuxa1NSOB-111" style="edgeStyle=orthogonalEdgeStyle;curved=1;rounded=0;orthogonalLoop=1;jettySize=auto;html=1;exitX=0.843;exitY=0.894;exitDx=0;exitDy=0;entryX=0.525;entryY=0.006;entryDx=0;entryDy=0;entryPerimeter=0;startArrow=none;startFill=0;startSize=6;sourcePerimeterSpacing=0;endArrow=oval;endFill=1;endSize=6;targetPerimeterSpacing=0;fontSize=3;exitPerimeter=0;" edge="1" parent="1" source="IFFRn_ugBCJUuxa1NSOB-107" target="IFFRn_ugBCJUuxa1NSOB-110">
          <mxGeometry relative="1" as="geometry">
            <Array as="points">
              <mxPoint x="587" y="600" />
              <mxPoint x="648" y="600" />
            </Array>
          </mxGeometry>
        </mxCell>
        <mxCell id="IFFRn_ugBCJUuxa1NSOB-107" value="点击劫持" style="rounded=1;whiteSpace=wrap;html=1;align=center;arcSize=50;fillColor=#000000;fontColor=#FFFFFF;" vertex="1" parent="1">
          <mxGeometry x="544" y="540" width="51" height="51" as="geometry" />
        </mxCell>
        <mxCell id="IFFRn_ugBCJUuxa1NSOB-108" style="edgeStyle=orthogonalEdgeStyle;curved=1;rounded=0;orthogonalLoop=1;jettySize=auto;html=1;startArrow=none;startFill=0;startSize=6;sourcePerimeterSpacing=0;endArrow=oval;endFill=1;endSize=6;targetPerimeterSpacing=0;strokeColor=#FFD966;fontSize=3;exitX=1;exitY=0.75;exitDx=0;exitDy=0;" edge="1" parent="1" source="IFFRn_ugBCJUuxa1NSOB-38" target="IFFRn_ugBCJUuxa1NSOB-107">
          <mxGeometry relative="1" as="geometry">
            <mxPoint x="554" y="540" as="targetPoint" />
            <mxPoint x="534" y="513" as="sourcePoint" />
            <Array as="points">
              <mxPoint x="584" y="503" />
            </Array>
          </mxGeometry>
        </mxCell>
        <mxCell id="IFFRn_ugBCJUuxa1NSOB-110" value="&lt;span style=&quot;font-size: 11px&quot;&gt;和CSRF有点像,不过点击劫持主要负责劫持点击事件,通过iframe 的target标签,同样局限于单一浏览器&lt;/span&gt;" style="whiteSpace=wrap;html=1;rounded=1;arcSize=24;align=center;fontSize=3;fillColor=#000000;fontColor=#FFFFFF;" vertex="1" parent="1">
          <mxGeometry x="524" y="620" width="237" height="80" as="geometry" />
        </mxCell>
        <mxCell id="IFFRn_ugBCJUuxa1NSOB-167" value="" style="edgeStyle=orthogonalEdgeStyle;curved=1;rounded=0;orthogonalLoop=1;jettySize=auto;html=1;startArrow=none;startFill=0;startSize=6;sourcePerimeterSpacing=0;endArrow=oval;endFill=1;endSize=6;targetPerimeterSpacing=0;fontSize=3;fontColor=#000000;entryX=0.583;entryY=0.998;entryDx=0;entryDy=0;entryPerimeter=0;" edge="1" parent="1" source="IFFRn_ugBCJUuxa1NSOB-113" target="IFFRn_ugBCJUuxa1NSOB-168">
          <mxGeometry relative="1" as="geometry">
            <mxPoint x="264.5" y="263" as="targetPoint" />
            <Array as="points">
              <mxPoint x="265" y="312" />
              <mxPoint x="278" y="312" />
              <mxPoint x="278" y="284" />
            </Array>
          </mxGeometry>
        </mxCell>
        <mxCell id="IFFRn_ugBCJUuxa1NSOB-113" value="" style="whiteSpace=wrap;html=1;shape=mxgraph.basic.oval_callout;fillColor=none;fontSize=3;align=center;rotation=-15;" vertex="1" parent="1">
          <mxGeometry x="214.5" y="333" width="100" height="60" as="geometry" />
        </mxCell>
        <mxCell id="IFFRn_ugBCJUuxa1NSOB-114" value="&lt;span&gt;散列表&lt;/span&gt;" style="text;html=1;align=center;verticalAlign=middle;resizable=0;points=[];autosize=1;fontSize=3;" vertex="1" parent="1">
          <mxGeometry x="234" y="358" width="50" height="10" as="geometry" />
        </mxCell>
        <mxCell id="IFFRn_ugBCJUuxa1NSOB-155" style="edgeStyle=orthogonalEdgeStyle;curved=1;rounded=0;orthogonalLoop=1;jettySize=auto;html=1;exitX=0.5;exitY=1;exitDx=0;exitDy=0;entryX=0.021;entryY=0.015;entryDx=0;entryDy=0;entryPerimeter=0;startArrow=none;startFill=0;startSize=6;sourcePerimeterSpacing=0;endArrow=oval;endFill=1;endSize=6;targetPerimeterSpacing=0;strokeColor=#000000;fontSize=3;fontColor=#000000;" edge="1" parent="1" source="IFFRn_ugBCJUuxa1NSOB-120" target="IFFRn_ugBCJUuxa1NSOB-154">
          <mxGeometry relative="1" as="geometry">
            <Array as="points">
              <mxPoint x="501" y="670" />
              <mxPoint x="520" y="670" />
            </Array>
          </mxGeometry>
        </mxCell>
        <mxCell id="IFFRn_ugBCJUuxa1NSOB-120" value="CSRF" style="rounded=1;whiteSpace=wrap;html=1;align=center;arcSize=50;" vertex="1" parent="1">
          <mxGeometry x="475" y="544" width="51" height="51" as="geometry" />
        </mxCell>
        <mxCell id="IFFRn_ugBCJUuxa1NSOB-153" style="edgeStyle=orthogonalEdgeStyle;curved=1;rounded=0;orthogonalLoop=1;jettySize=auto;html=1;exitX=0.5;exitY=1;exitDx=0;exitDy=0;entryX=1;entryY=0.75;entryDx=0;entryDy=0;startArrow=none;startFill=0;startSize=6;sourcePerimeterSpacing=0;endArrow=oval;endFill=1;endSize=6;targetPerimeterSpacing=0;fontSize=3;fontColor=#000000;" edge="1" parent="1" source="IFFRn_ugBCJUuxa1NSOB-138" target="IFFRn_ugBCJUuxa1NSOB-150">
          <mxGeometry relative="1" as="geometry" />
        </mxCell>
        <mxCell id="IFFRn_ugBCJUuxa1NSOB-138" value="xss攻击" style="rounded=1;whiteSpace=wrap;html=1;align=center;arcSize=50;" vertex="1" parent="1">
          <mxGeometry x="384.001981981982" y="540" width="49.00900900900901" height="49.19614147909969" as="geometry" />
        </mxCell>
        <mxCell id="IFFRn_ugBCJUuxa1NSOB-157" style="edgeStyle=orthogonalEdgeStyle;curved=1;rounded=0;orthogonalLoop=1;jettySize=auto;html=1;exitX=0.5;exitY=1;exitDx=0;exitDy=0;startArrow=none;startFill=0;startSize=6;sourcePerimeterSpacing=0;endArrow=oval;endFill=1;endSize=6;targetPerimeterSpacing=0;strokeColor=#000000;fontSize=3;fontColor=#000000;" edge="1" parent="1" source="IFFRn_ugBCJUuxa1NSOB-140" target="IFFRn_ugBCJUuxa1NSOB-156">
          <mxGeometry relative="1" as="geometry" />
        </mxCell>
        <mxCell id="IFFRn_ugBCJUuxa1NSOB-140" value="点击劫持" style="rounded=1;whiteSpace=wrap;html=1;align=center;arcSize=50;" vertex="1" parent="1">
          <mxGeometry x="423" y="591" width="51" height="51" as="geometry" />
        </mxCell>
        <mxCell id="IFFRn_ugBCJUuxa1NSOB-46" value="xss攻击" style="rounded=1;whiteSpace=wrap;html=1;align=center;arcSize=50;fillColor=#000000;fontColor=#FFFFFF;" vertex="1" parent="1">
          <mxGeometry x="715.981981981982" y="220" width="49.00900900900901" height="49.19614147909969" as="geometry" />
        </mxCell>
        <mxCell id="IFFRn_ugBCJUuxa1NSOB-49" value="&lt;font style=&quot;font-size: 11px&quot;&gt;本身缩写css,但是因为被占用 写作xcc&lt;/font&gt;" style="whiteSpace=wrap;html=1;rounded=1;arcSize=12;align=center;fontSize=3;fillColor=#000000;fontColor=#FFFFFF;" vertex="1" parent="1">
          <mxGeometry x="791.4174174174175" y="220" width="182.5825825825826" height="29.903536977491967" as="geometry" />
        </mxCell>
        <mxCell id="IFFRn_ugBCJUuxa1NSOB-50" value="" style="edgeStyle=orthogonalEdgeStyle;curved=1;rounded=0;orthogonalLoop=1;jettySize=auto;html=1;startArrow=none;startFill=0;startSize=6;sourcePerimeterSpacing=0;endArrow=oval;endFill=1;endSize=6;targetPerimeterSpacing=0;" edge="1" parent="1" source="IFFRn_ugBCJUuxa1NSOB-46" target="IFFRn_ugBCJUuxa1NSOB-49">
          <mxGeometry relative="1" as="geometry" />
        </mxCell>
        <mxCell id="IFFRn_ugBCJUuxa1NSOB-149" style="edgeStyle=orthogonalEdgeStyle;curved=1;rounded=0;orthogonalLoop=1;jettySize=auto;html=1;exitX=0.5;exitY=1;exitDx=0;exitDy=0;entryX=-0.011;entryY=0.298;entryDx=0;entryDy=0;entryPerimeter=0;startArrow=none;startFill=0;startSize=6;sourcePerimeterSpacing=0;endArrow=oval;endFill=1;endSize=6;targetPerimeterSpacing=0;fontSize=3;fontColor=#FFFFFF;" edge="1" parent="1" source="IFFRn_ugBCJUuxa1NSOB-52" target="IFFRn_ugBCJUuxa1NSOB-69">
          <mxGeometry relative="1" as="geometry" />
        </mxCell>
        <mxCell id="IFFRn_ugBCJUuxa1NSOB-52" value="存储型" style="whiteSpace=wrap;html=1;rounded=1;arcSize=50;align=center;fillColor=#000000;fontColor=#FFFFFF;" vertex="1" parent="1">
          <mxGeometry x="839.4654654654655" y="272.09003215434086" width="34.5945945945946" height="34.726688102893895" as="geometry" />
        </mxCell>
        <mxCell id="IFFRn_ugBCJUuxa1NSOB-51" style="edgeStyle=orthogonalEdgeStyle;curved=1;rounded=0;orthogonalLoop=1;jettySize=auto;html=1;startArrow=none;startFill=0;startSize=6;sourcePerimeterSpacing=0;endArrow=oval;endFill=1;endSize=6;targetPerimeterSpacing=0;" edge="1" parent="1" source="IFFRn_ugBCJUuxa1NSOB-46" target="IFFRn_ugBCJUuxa1NSOB-52">
          <mxGeometry relative="1" as="geometry">
            <mxPoint x="801.0270270270271" y="269.19614147909965" as="targetPoint" />
            <Array as="points">
              <mxPoint x="772.1981981981982" y="245.08038585209005" />
              <mxPoint x="772.1981981981982" y="280.7717041800643" />
            </Array>
          </mxGeometry>
        </mxCell>
        <mxCell id="IFFRn_ugBCJUuxa1NSOB-54" value="反射型" style="whiteSpace=wrap;html=1;rounded=1;arcSize=50;align=center;fillColor=#000000;fontColor=#FFFFFF;" vertex="1" parent="1">
          <mxGeometry x="733.7597597597597" y="278.84244372990355" width="35.55555555555556" height="35.69131832797428" as="geometry" />
        </mxCell>
        <mxCell id="IFFRn_ugBCJUuxa1NSOB-57" style="edgeStyle=orthogonalEdgeStyle;curved=1;rounded=0;orthogonalLoop=1;jettySize=auto;html=1;exitX=0.75;exitY=1;exitDx=0;exitDy=0;entryX=0.595;entryY=-0.018;entryDx=0;entryDy=0;entryPerimeter=0;startArrow=none;startFill=0;startSize=6;sourcePerimeterSpacing=0;endArrow=oval;endFill=1;endSize=6;targetPerimeterSpacing=0;strokeColor=#000000;fontSize=3;" edge="1" parent="1" source="IFFRn_ugBCJUuxa1NSOB-46" target="IFFRn_ugBCJUuxa1NSOB-54">
          <mxGeometry relative="1" as="geometry" />
        </mxCell>
        <mxCell id="IFFRn_ugBCJUuxa1NSOB-60" value="" style="edgeStyle=orthogonalEdgeStyle;curved=1;rounded=0;orthogonalLoop=1;jettySize=auto;html=1;startArrow=none;startFill=0;startSize=6;sourcePerimeterSpacing=0;endArrow=oval;endFill=1;endSize=6;targetPerimeterSpacing=0;strokeColor=#000000;fontSize=3;entryX=0.785;entryY=0;entryDx=0;entryDy=0;entryPerimeter=0;" edge="1" parent="1" source="IFFRn_ugBCJUuxa1NSOB-54" target="IFFRn_ugBCJUuxa1NSOB-59">
          <mxGeometry relative="1" as="geometry">
            <Array as="points">
              <mxPoint x="752.018018018018" y="317.427652733119" />
            </Array>
          </mxGeometry>
        </mxCell>
        <mxCell id="IFFRn_ugBCJUuxa1NSOB-59" value="&lt;b&gt;特点&lt;/b&gt;" style="whiteSpace=wrap;html=1;rounded=1;arcSize=13;align=left;labelPosition=center;verticalLabelPosition=top;verticalAlign=bottom;fillColor=#000000;" vertex="1" parent="1">
          <mxGeometry x="664.0003903903904" y="326.28395498392285" width="174.97497497497497" height="77.17041800643089" as="geometry" />
        </mxCell>
        <mxCell id="IFFRn_ugBCJUuxa1NSOB-62" value="&lt;font style=&quot;font-size: 11px&quot; face=&quot;Times New Roman&quot;&gt;将攻击隐藏在url内,通过广撒网&lt;br&gt;被点击后,可能会被网站读取url&lt;br&gt;的攻击,对点击用户危害较大&lt;br&gt;&lt;/font&gt;" style="text;html=1;align=left;verticalAlign=middle;resizable=0;points=[];autosize=1;fontSize=3;fontColor=#FFFFFF;" vertex="1" parent="1">
          <mxGeometry x="666.58" y="353.0011254019293" width="180" height="20" as="geometry" />
        </mxCell>
        <mxCell id="IFFRn_ugBCJUuxa1NSOB-147" value="" style="group" vertex="1" connectable="0" parent="1">
          <mxGeometry x="891.0028828828829" y="320.0047588424437" width="182.57960960960963" height="90.02893890675242" as="geometry" />
        </mxCell>
        <mxCell id="IFFRn_ugBCJUuxa1NSOB-69" value="&lt;b&gt;特点&lt;/b&gt;" style="whiteSpace=wrap;html=1;rounded=1;arcSize=13;align=left;labelPosition=center;verticalLabelPosition=top;verticalAlign=bottom;fillColor=#000000;" vertex="1" parent="IFFRn_ugBCJUuxa1NSOB-147">
          <mxGeometry width="174.97177177177178" height="90.02893890675243" as="geometry" />
        </mxCell>
        <mxCell id="IFFRn_ugBCJUuxa1NSOB-70" value="&lt;font&gt;&lt;font face=&quot;Times New Roman&quot;&gt;&lt;span style=&quot;font-size: 11px&quot;&gt;对输入框输入&amp;lt;&lt;/span&gt;&lt;/font&gt;&lt;span style=&quot;font-size: 11px&quot;&gt;script&lt;/span&gt;&lt;font face=&quot;Times New Roman&quot;&gt;&lt;span style=&quot;font-size: 11px&quot;&gt;&amp;gt;包裹的&lt;br&gt;js代码,如果输入框不处理照单&lt;br&gt;&lt;/span&gt;&lt;/font&gt;全收,就会被存入数据库,如果数&lt;br&gt;据库拿出来&amp;lt;script&amp;gt;并且展示&lt;br&gt;在页面中,就会执行恶意代码,对&lt;br&gt;网站伤害较大&lt;br&gt;&lt;/font&gt;" style="text;html=1;align=left;verticalAlign=middle;resizable=0;points=[];autosize=1;fontSize=3;fontColor=#FFFFFF;" vertex="1" parent="IFFRn_ugBCJUuxa1NSOB-147">
          <mxGeometry x="2.5796096096096335" y="30.016623794212222" width="180" height="30" as="geometry" />
        </mxCell>
        <mxCell id="IFFRn_ugBCJUuxa1NSOB-148" value="" style="group" vertex="1" connectable="0" parent="1">
          <mxGeometry x="756.76" y="513" width="200" height="90" as="geometry" />
        </mxCell>
        <mxCell id="IFFRn_ugBCJUuxa1NSOB-102" value="&lt;span&gt;特点&lt;/span&gt;" style="whiteSpace=wrap;html=1;align=left;labelPosition=center;verticalLabelPosition=top;verticalAlign=bottom;fontSize=3;strokeColor=none;fillColor=#000000;fontStyle=1" vertex="1" parent="IFFRn_ugBCJUuxa1NSOB-148">
          <mxGeometry width="180" height="90" as="geometry" />
        </mxCell>
        <mxCell id="IFFRn_ugBCJUuxa1NSOB-103" value="&lt;font&gt;&lt;span style=&quot;font-size: 11px&quot;&gt;主要利用第三方网站要求访问用户&lt;br&gt;&lt;/span&gt;访问受攻击网站,由于受攻击带有&lt;br&gt;登录态,所以从第三方网站访问受&lt;br&gt;攻击网站,也能获取登录的信息,&lt;br&gt;比较隐蔽,但危害不会扩大,只局限&lt;br&gt;单一浏览器&lt;br&gt;&lt;/font&gt;" style="text;html=1;align=left;verticalAlign=middle;resizable=0;points=[];autosize=1;fontSize=3;fontColor=#FFFFFF;" vertex="1" parent="IFFRn_ugBCJUuxa1NSOB-148">
          <mxGeometry y="27.99666666666667" width="200" height="30" as="geometry" />
        </mxCell>
        <mxCell id="IFFRn_ugBCJUuxa1NSOB-150" value="&lt;ul&gt;&lt;li&gt;不要直接接受get方法参数,不要对输入框任意放行&lt;br&gt;&lt;/li&gt;&lt;li&gt;后端输入&amp;nbsp; &amp;nbsp; &amp;nbsp; &amp;nbsp; &amp;nbsp; &amp;nbsp; &amp;nbsp; &amp;nbsp; &amp;nbsp; &amp;nbsp; &amp;nbsp; &amp;nbsp; &amp;nbsp; &amp;nbsp; &amp;nbsp; &amp;nbsp;&lt;span&gt;&lt;code&gt;&lt;font color=&quot;#ffd966&quot;&gt;response.addHeader(&quot;Set-Cookie&quot;, &quot;uid=112; Path=/; HttpOnly&quot;)&lt;/font&gt;&lt;/code&gt;&lt;/span&gt;&lt;/li&gt;&lt;li&gt;&lt;span&gt;利用&lt;/span&gt;&lt;span style=&quot;font-size: 3px&quot;&gt;CSP阻止&lt;/span&gt;&lt;/li&gt;&lt;li&gt;&lt;span style=&quot;font-size: 3px&quot;&gt;利用&lt;a href=&quot;https://www.npmjs.com/package/xss&quot;&gt;白名单&lt;/a&gt;过滤&lt;/span&gt;&lt;/li&gt;&lt;li&gt;&lt;span style=&quot;font-size: 3px&quot;&gt;黑名单(基于标签复杂,不建议使用)&lt;/span&gt;&lt;/li&gt;&lt;/ul&gt;" style="rounded=1;whiteSpace=wrap;html=1;strokeColor=#000000;fontSize=3;align=left;fillColor=none;arcSize=14;" vertex="1" parent="1">
          <mxGeometry x="64" y="580" width="310" height="120" as="geometry" />
        </mxCell>
        <mxCell id="IFFRn_ugBCJUuxa1NSOB-154" value="&lt;ul&gt;&lt;li&gt;&lt;span style=&quot;font-size: 3px&quot;&gt;读取头的Referer Check&amp;nbsp;&lt;/span&gt;&lt;/li&gt;&lt;li&gt;&lt;span style=&quot;font-size: 3px&quot;&gt;验证码&lt;br&gt;&lt;/span&gt;&lt;/li&gt;&lt;li&gt;&lt;span style=&quot;font-size: 3px&quot;&gt;禁止第三方网站带Cookie -不过影响过大,不建议&lt;/span&gt;&lt;br&gt;&lt;/li&gt;&lt;/ul&gt;" style="rounded=1;whiteSpace=wrap;html=1;strokeColor=#000000;fontSize=3;align=left;fillColor=none;arcSize=14;" vertex="1" parent="1">
          <mxGeometry x="514" y="710" width="305" height="60" as="geometry" />
        </mxCell>
        <mxCell id="IFFRn_ugBCJUuxa1NSOB-156" value="&lt;ul&gt;&lt;li&gt;利用X-FRAME-OPTIONS ,禁止iframe访问&lt;/li&gt;&lt;li&gt;对比网页执行一段self和top的指向判断,从而客户端知道是被嵌入第三方网页实现拦截&lt;/li&gt;&lt;/ul&gt;" style="rounded=1;whiteSpace=wrap;html=1;strokeColor=#000000;fontSize=3;align=left;fillColor=none;arcSize=14;" vertex="1" parent="1">
          <mxGeometry x="184" y="770" width="305" height="60" as="geometry" />
        </mxCell>
        <mxCell id="IFFRn_ugBCJUuxa1NSOB-162" value="" style="edgeStyle=orthogonalEdgeStyle;curved=1;rounded=0;orthogonalLoop=1;jettySize=auto;html=1;startArrow=none;startFill=0;startSize=6;sourcePerimeterSpacing=0;endArrow=oval;endFill=1;endSize=6;targetPerimeterSpacing=0;strokeColor=#904FFF;fontSize=3;fontColor=#000000;exitX=0.81;exitY=0.891;exitDx=0;exitDy=0;exitPerimeter=0;" edge="1" parent="1" source="IFFRn_ugBCJUuxa1NSOB-158" target="IFFRn_ugBCJUuxa1NSOB-161">
          <mxGeometry relative="1" as="geometry">
            <Array as="points">
              <mxPoint x="947" y="695" />
            </Array>
          </mxGeometry>
        </mxCell>
        <mxCell id="IFFRn_ugBCJUuxa1NSOB-158" value="&lt;div&gt;&lt;span&gt;os攻击&lt;/span&gt;&lt;/div&gt;" style="rounded=1;whiteSpace=wrap;html=1;arcSize=50;align=center;fontColor=#FFFFFF;strokeColor=#FFFFFF;fillColor=#55FF00;" vertex="1" parent="1">
          <mxGeometry x="875" y="651" width="49" height="49" as="geometry" />
        </mxCell>
        <mxCell id="IFFRn_ugBCJUuxa1NSOB-161" value="参数不校验:通过&amp;amp;连接符执行其他命令" style="whiteSpace=wrap;html=1;rounded=1;strokeColor=#FFFFFF;fillColor=#55FF00;arcSize=50;" vertex="1" parent="1">
          <mxGeometry x="887" y="609" width="120" height="32.48" as="geometry" />
        </mxCell>
        <mxCell id="IFFRn_ugBCJUuxa1NSOB-163" value="&lt;ul&gt;&lt;li&gt;第一次攻击可以追溯到89年&lt;/li&gt;&lt;li&gt;高防ip阻挡ddos攻击&lt;/li&gt;&lt;li&gt;对来自用户的任何输入都要严谨&lt;/li&gt;&lt;li&gt;sql一定要用占位符&lt;/li&gt;&lt;li&gt;因为网页是送到客户手上的,无法很好的控制,通常是后端实现&lt;/li&gt;&lt;/ul&gt;" style="rounded=1;whiteSpace=wrap;html=1;strokeColor=#000000;fontSize=3;fontColor=#000000;align=left;fillColor=#FFD966;" vertex="1" parent="1">
          <mxGeometry x="-241" y="528.5" width="230" height="113.5" as="geometry" />
        </mxCell>
        <mxCell id="IFFRn_ugBCJUuxa1NSOB-168" value="特点、优劣、应用" style="rounded=1;whiteSpace=wrap;html=1;strokeColor=#000000;fontSize=3;fontColor=#000000;align=left;fillColor=none;labelPosition=center;verticalLabelPosition=top;verticalAlign=bottom;" vertex="1" parent="1">
          <mxGeometry x="161" y="74" width="203" height="210" as="geometry" />
        </mxCell>
        <mxCell id="IFFRn_ugBCJUuxa1NSOB-169" value="&lt;h1&gt;优势&lt;/h1&gt;&lt;div&gt;&amp;nbsp; &amp;nbsp; hash表由于哈希压缩,速度非常快,时间复杂度O(1)&lt;/div&gt;" style="text;html=1;strokeColor=none;fillColor=none;spacing=5;spacingTop=-20;whiteSpace=wrap;overflow=hidden;rounded=0;fontSize=3;fontColor=#000000;align=left;" vertex="1" parent="1">
          <mxGeometry x="170" y="97" width="190" height="120" as="geometry" />
        </mxCell>
        <mxCell id="IFFRn_ugBCJUuxa1NSOB-170" value="&lt;h1&gt;劣势&lt;/h1&gt;&lt;div&gt;&amp;nbsp; &amp;nbsp; hash表基于数组制作,因此修改数据非常慢,尤其到缓存快满的时候&lt;/div&gt;" style="text;html=1;strokeColor=none;fillColor=none;spacing=5;spacingTop=-20;whiteSpace=wrap;overflow=hidden;rounded=0;fontSize=3;fontColor=#000000;align=left;" vertex="1" parent="1">
          <mxGeometry x="171" y="145" width="190" height="120" as="geometry" />
        </mxCell>
        <mxCell id="IFFRn_ugBCJUuxa1NSOB-171" value="&lt;h1&gt;应用&lt;/h1&gt;&lt;div&gt;&amp;nbsp; &amp;nbsp; 可应用于确定的海量数据,避免一直递增,&lt;/div&gt;" style="text;html=1;strokeColor=none;fillColor=none;spacing=5;spacingTop=-20;whiteSpace=wrap;overflow=hidden;rounded=0;fontSize=3;fontColor=#000000;align=left;" vertex="1" parent="1">
          <mxGeometry x="171" y="208" width="190" height="45" as="geometry" />
        </mxCell>
      </root>
    </mxGraphModel>
  </diagram>
</mxfile>
